<svg aria-hidden="true" style="position: absolute; width: 0; height: 0; overflow: hidden;" version="1.1"
     xmlns="http://www.w3.org/2000/svg">

    <defs>
        <symbol id="icon-logo" viewBox="0 0 4419 1024">
            <path d="M129.347 970.105V460.476H5.174V314.313h179.793l-55.619 50.445v-94.424c0-85.369 21.989-149.612 65.967-192.728 44.84-43.116 111.67-64.674 200.488-64.674 19.833 0 40.96 1.293 63.38 3.88 23.283 2.587 43.547 7.761 60.793 15.522v150.043c-12.072-4.312-25.869-7.33-41.391-9.054-15.522-2.587-30.612-3.88-45.272-3.88-19.833 0-38.373 3.449-55.619 10.348-16.384 6.899-29.75 18.54-40.098 34.924-9.485 15.522-14.228 36.648-14.228 63.38v68.554l-27.163-32.337h192.728v146.163H324.662v509.629H129.347zm719.204 14.228c-69.848 0-130.641-13.797-182.38-41.391-50.877-28.456-90.543-68.123-119-119-27.596-50.877-41.393-111.67-41.393-182.38 0-69.848 13.797-130.21 41.393-181.086 28.456-50.877 68.123-90.112 119-117.706 51.739-27.594 112.532-41.391 182.38-41.391s130.641 13.797 182.38 41.391c51.739 27.594 91.405 66.829 119 117.706 28.456 50.877 42.685 111.239 42.685 181.086 0 70.71-14.228 131.503-42.685 182.38-27.594 50.877-67.261 90.543-119 119-51.739 27.594-112.532 41.391-182.38 41.391zm0-147.456c44.84 0 80.195-15.953 106.065-47.859 26.732-31.906 40.098-81.058 40.098-147.456s-13.366-115.119-40.098-146.163c-25.869-31.043-61.224-46.565-106.065-46.565s-80.627 15.522-107.358 46.565c-25.869 31.043-38.804 79.764-38.804 146.163s12.935 115.55 38.804 147.456c26.732 31.906 62.518 47.859 107.358 47.859zm754.758 147.456c-69.848 0-130.641-13.797-182.38-41.391-50.877-28.456-90.543-68.123-119-119-27.594-50.877-41.391-111.67-41.391-182.38 0-69.848 13.797-130.21 41.391-181.086 28.456-50.877 68.123-90.112 119-117.706 51.739-27.594 112.532-41.391 182.38-41.391s130.641 13.797 182.38 41.391c51.739 27.594 91.405 66.829 119 117.706 28.456 50.877 42.685 111.239 42.685 181.086 0 70.71-14.228 131.503-42.685 182.38-27.594 50.877-67.261 90.543-119 119-51.739 27.594-112.532 41.391-182.38 41.391zm0-147.456c44.84 0 80.195-15.953 106.065-47.859 26.732-31.906 40.098-81.058 40.098-147.456s-13.366-115.119-40.098-146.163c-25.869-31.043-61.224-46.565-106.065-46.565s-80.627 15.522-107.358 46.565c-25.869 31.043-38.804 79.764-38.804 146.163s12.935 115.55 38.804 147.456c26.732 31.906 62.518 47.859 107.358 47.859zm701.731 147.456c-56.913 0-107.358-13.797-151.336-41.391-43.116-27.594-77.177-66.829-102.184-117.706-24.145-50.877-36.217-112.101-36.217-183.673 0-70.71 12.072-131.503 36.217-182.38s58.206-89.681 102.184-116.413c43.978-27.594 94.424-41.391 151.336-41.391 51.739 0 97.873 12.504 138.402 37.511 41.391 24.145 68.985 56.913 82.782 98.304h-16.815V18.108h195.315v951.997h-192.728V842.051h16.815c-13.797 43.116-41.391 77.608-82.782 103.478s-88.387 38.804-140.989 38.804zm58.206-147.456c44.84 0 81.058-15.953 108.652-47.859s41.391-81.058 41.391-147.456c0-66.398-13.797-115.119-41.391-146.163s-63.811-46.565-108.652-46.565c-44.84 0-81.489 15.522-109.945 46.565-27.594 31.043-41.391 79.764-41.391 146.163s13.797 115.55 41.391 147.456c28.456 31.906 65.105 47.859 109.945 47.859zm475.789 133.228V314.314h195.315v655.791h-195.315zm-7.761-763.149V24.576h209.543v182.38h-209.543zm666.672 777.377c-113.826 0-202.644-30.612-266.456-91.837s-95.717-144.438-95.717-249.64c0-68.123 13.366-127.623 40.098-178.499 27.594-50.877 65.536-90.543 113.826-119 49.152-29.319 106.496-43.978 172.032-43.978 64.674 0 118.568 13.797 161.684 41.391 43.978 27.594 76.746 66.398 98.304 116.413 22.42 49.152 33.63 106.496 33.63 172.032v45.272h-459.183v-97.011h316.901l-21.989 18.109c0-54.326-11.21-95.286-33.63-122.88-21.558-28.456-53.032-42.685-94.424-42.685-45.703 0-81.058 16.815-106.065 50.445-24.145 33.63-36.217 81.92-36.217 144.869v20.696c0 63.811 15.522 111.239 46.565 142.282 31.906 31.043 77.608 46.565 137.108 46.565 35.355 0 68.554-4.312 99.597-12.935 31.906-9.485 62.087-24.145 90.543-43.978l54.326 129.347c-32.768 24.145-70.71 42.685-113.826 55.619-42.253 12.935-87.956 19.402-137.108 19.402zm597.332 0c-58.637 0-112.101-6.467-160.391-19.402s-89.25-31.043-122.88-54.326l50.445-129.347c33.63 20.696 70.71 37.08 111.239 49.152 41.391 12.072 82.351 18.109 122.88 18.109 37.942 0 65.967-6.036 84.076-18.109s27.163-28.456 27.163-49.152c0-17.246-6.036-30.612-18.109-40.098-11.21-9.485-28.888-16.384-53.032-20.696l-133.228-24.576c-56.051-11.21-98.735-31.906-128.054-62.087s-43.978-69.416-43.978-117.706c0-42.253 11.21-79.333 33.63-111.239 23.283-32.768 56.482-58.206 99.597-76.315s93.561-27.163 151.336-27.163c49.152 0 95.717 6.036 139.695 18.109s81.489 30.612 112.532 55.619l-53.032 125.467c-26.732-19.833-57.775-35.786-93.13-47.859-34.493-12.072-67.692-18.109-99.597-18.109-41.391 0-71.141 6.899-89.25 20.696-18.109 12.935-27.163 29.75-27.163 50.445 0 15.522 5.174 28.456 15.522 38.804 11.21 10.348 28.025 18.109 50.445 23.283l134.521 24.576c57.775 10.348 101.753 29.75 131.934 58.206s45.272 67.692 45.272 117.706c0 45.703-12.072 84.507-36.217 116.413s-58.206 56.482-102.184 73.728c-43.116 17.246-93.13 25.869-150.043 25.869z"/>
        </symbol>

        <symbol id="icon-youtube" viewBox="0 0 32 32">
            <path d="M24.24 6c-1.36-0.080-4.16-0.16-8.4-0.16h-0.56c-4.080 0-6.8 0.080-8.16 0.24-1.84 0.16-3.12 0.64-3.84 1.28-0.64 0.56-1.12 1.6-1.28 2.96-0.080 0.88-0.16 2.72-0.16 5.52v0.4c0 2.64 0.080 4.48 0.24 5.36 0.24 1.28 0.64 2.24 1.44 2.8 0.8 0.64 2.16 1.040 4.080 1.2 1.36 0.080 4.16 0.16 8.4 0.16h0.56c4.080 0 6.8-0.080 8.16-0.24 1.84-0.16 3.12-0.64 3.84-1.28 0.64-0.56 1.12-1.6 1.28-2.96 0.080-0.88 0.16-2.72 0.16-5.52v-0.4c0-2.64-0.080-4.48-0.24-5.36-0.24-1.28-0.64-2.24-1.44-2.8-0.8-0.64-2.16-1.040-4.080-1.2zM21.12 15.84l-8.8 5.28v-10.56l8.8 5.28z"></path>
        </symbol>

        <symbol id="icon-instagram" viewBox="0 0 32 32">
            <path d="M28.718 10.756c-0.016-1.074-0.215-2.14-0.596-3.145-0.667-1.716-2.024-3.073-3.743-3.737-0.994-0.373-2.044-0.573-3.108-0.596-1.368-0.061-1.801-0.078-5.273-0.078s-3.916 0-5.274 0.078c-1.062 0.023-2.113 0.223-3.106 0.596-1.719 0.664-3.078 2.021-3.743 3.737-0.374 0.992-0.576 2.041-0.596 3.101-0.061 1.367-0.080 1.8-0.080 5.265s0 3.909 0.080 5.265c0.021 1.062 0.222 2.109 0.596 3.104 0.667 1.714 2.024 3.071 3.744 3.735 0.989 0.386 2.040 0.605 3.106 0.639 1.369 0.061 1.803 0.079 5.274 0.079s3.916 0 5.274-0.079c1.062-0.021 2.112-0.221 3.108-0.595 1.719-0.666 3.076-2.022 3.743-3.737 0.374-0.994 0.574-2.041 0.596-3.104 0.061-1.365 0.080-1.798 0.080-5.265-0.003-3.466-0.003-3.906-0.082-5.264zM15.99 22.531c-3.631 0-6.572-2.936-6.572-6.561s2.941-6.561 6.572-6.561c3.628 0 6.572 2.936 6.572 6.561s-2.944 6.561-6.572 6.561zM22.824 10.696c-0.849 0-1.532-0.684-1.532-1.53s0.684-1.53 1.532-1.53c0.846 0 1.531 0.684 1.531 1.53s-0.685 1.53-1.531 1.53z"></path>
            <path d="M15.992 19.976c2.211 0 4.004-1.793 4.004-4.004s-1.793-4.004-4.004-4.004c-2.211 0-4.004 1.793-4.004 4.004s1.793 4.004 4.004 4.004z"></path>
        </symbol>

        <symbol id="icon-facebook" viewBox="0 0 32 32">
            <path d="M19.52 4.64c0.24 0 0.48 0 0.96 0v3.6c-0.24 0-0.72 0-1.2 0s-0.96 0-1.2 0.24c-0.24 0.24-0.24 0.48-0.24 1.040 0 0.48 0 0.8 0 1.28h2.64v3.040h-2.64v13.2h-4.080v-13.28h-2.16v-3.040h2.16v-1.040c0-1.76 0.24-3.040 0.72-3.6 0.72-1.040 2.16-1.52 4.32-1.52 0.24 0.080 0.48 0.080 0.72 0.080z"></path>
        </symbol>

        <symbol id="icon-check" viewBox="0 0 39 32">
            <path stroke-width="7.147" d="m3.556 17.778 10.667 7.111L33.779 3.556"/>
        </symbol>

        <symbol id="icon-align-justify" viewBox="0 0 32 32">
            <path stroke-linecap="round" stroke-linejoin="round" stroke-width="2.286" d="M28 13.333H4M28 8H4M28 18.667H4M28 24H4"/>
        </symbol>

        <symbol id="icon-chevron-down" viewBox="0 0 32 32">
            <path stroke-linecap="round" stroke-linejoin="round" stroke-width="3.2" d="m8 12 8 8 8-8"/>
        </symbol>

        <symbol id="icon-eye" viewBox="0 0 32 32">
            <path stroke-linecap="round" stroke-linejoin="round" stroke-width="2.88" d="M1.333 16S6.666 5.333 16 5.333 30.667 16 30.667 16 25.334 26.667 16 26.667C6.667 26.667 1.333 16 1.333 16z"/>
            <path stroke-linecap="round" stroke-linejoin="round" stroke-width="2.88" d="M16 20a4 4 0 1 0 0-8 4 4 0 0 0 0 8z"/>
        </symbol>

        <symbol id="icon-eye-off" viewBox="0 0 32 32">
            <path stroke-linecap="round" stroke-linejoin="round" stroke-width="2.88" d="M23.92 23.92A13.43 13.43 0 0 1 16 26.667C6.667 26.667 1.333 16 1.333 16A24.605 24.605 0 0 1 8.08 8.08m5.12-2.426a12.161 12.161 0 0 1 2.8-.32c9.333 0 14.667 10.667 14.667 10.667a24.646 24.646 0 0 1-2.88 4.253m-8.961-1.427a4.01 4.01 0 0 1-2.855 1.273 3.996 3.996 0 0 1-3.779-2.501 3.995 3.995 0 0 1 .983-4.424M1.333 1.334l29.333 29.333"/>
        </symbol>

        <symbol id="icon-heart" viewBox="0 0 32 32">
            <path stroke-linecap="round" stroke-linejoin="round" stroke-width="2.667" d="M27.786 6.146a7.345 7.345 0 0 0-5.187-2.15 7.33 7.33 0 0 0-5.187 2.15l-1.413 1.413-1.413-1.413a7.333 7.333 0 0 0-10.374 0 7.333 7.333 0 0 0 0 10.374l11.787 11.787L27.786 16.52a7.345 7.345 0 0 0 2.15-5.187 7.33 7.33 0 0 0-2.15-5.187z"/>
        </symbol>

        <symbol id="icon-heart-empty" viewBox="0 0 18 18">
            <path d="M15.6296 3.4574C15.2465 3.07416 14.7917 2.77014 14.2911 2.56272C13.7905 2.3553 13.254 2.24854 12.7121 2.24854C12.1702 2.24854 11.6337 2.3553 11.1331 2.56272C10.6325 2.77014 10.1777 3.07416 9.7946 3.4574L8.9996 4.2524L8.2046 3.4574C7.43083 2.68364 6.38137 2.24894 5.2871 2.24894C4.19283 2.24894 3.14337 2.68364 2.3696 3.4574C1.59583 4.23117 1.16113 5.28063 1.16113 6.3749C1.16113 7.46918 1.59583 8.51864 2.3696 9.2924L3.1646 10.0874L8.9996 15.9224L14.8346 10.0874L15.6296 9.2924C16.0128 8.90934 16.3169 8.45451 16.5243 7.95392C16.7317 7.45333 16.8385 6.91677 16.8385 6.3749C16.8385 5.83304 16.7317 5.29648 16.5243 4.79589C16.3169 4.29529 16.0128 3.84047 15.6296 3.4574Z" stroke-width="1.5" stroke-linecap="round" stroke-linejoin="round"/>
        </symbol>

        <symbol id="icon-quote" viewBox="0 0 39 32">
            <path d="M0 32V21.294c0-4 .704-7.686 2.113-11.059S5.909 3.451 9.275 0l6.105 4.824c-1.957 1.961-3.444 3.804-4.462 5.529s-1.683 3.49-1.996 5.294h7.514V32H-.002zm22.896 0V21.294c0-4 .704-7.686 2.113-11.059S28.805 3.451 32.171 0l6.105 4.824c-1.957 1.961-3.444 3.804-4.462 5.529s-1.683 3.49-1.996 5.294h7.514V32H22.894z"/>
        </symbol>

        <symbol id="icon-trash" viewBox="0 0 18 18">
          <path d="M7.5 2.5H12.5" stroke="#BFBEBE" stroke-width="2" stroke-linecap="round" stroke-linejoin="round"/>
<path d="M2.5 5H17.5M15.8333 5L15.2489 13.7661C15.1612 15.0813 15.1174 15.7389 14.8333 16.2375C14.5833 16.6765 14.206 17.0294 13.7514 17.2497C13.235 17.5 12.5759 17.5 11.2578 17.5H8.74221C7.42409 17.5 6.76503 17.5 6.24861 17.2497C5.79396 17.0294 5.41674 16.6765 5.16665 16.2375C4.88259 15.7389 4.83875 15.0813 4.75107 13.7661L4.16667 5" stroke="#BFBEBE" stroke-width="2" stroke-linecap="round" stroke-linejoin="round"/>
        </symbol>

        <symbol id="icon-arrow" viewBox="0 0 16 16">
            <g id="arrow-up-right">
              <path id="Vector" d="M4.66699 11.3333L11.3337 4.66663" stroke-width="1.3" stroke-linecap="round" stroke-linejoin="round"/>
              <path id="Vector_2" d="M4.66699 4.66663H11.3337V11.3333" stroke-width="1.3" stroke-linecap="round" stroke-linejoin="round"/>
            </g>
        </symbol>
		
		<symbol id="icon-plus" viewBox="0 0 18 18">
		  <path d="M9 3.75V14.25" stroke="white" stroke-width="1.5" stroke-linecap="round" stroke-linejoin="round"/>
		  <path d="M3.75 9H14.25" stroke="white" stroke-width="1.5" stroke-linecap="round" stroke-linejoin="round"/>
		</symbol>
    </defs>
</svg>